<svg width="24" height="24" viewBox="0 0 24 24" fill="none" xmlns="http://www.w3.org/2000/svg">
<path d="M19.708 22H4.292C3.028 22 2 20.972 2 19.708V7.375C2 6.11 3.028 5.083 4.292 5.083H6.438C7.633 3.17 9.722 2 12 2C14.277 2 16.367 3.17 17.562 5.083H19.708C20.972 5.083 22 6.11 22 7.375V19.708C22 20.972 20.972 22 19.708 22ZM4.292 6.583C3.855 6.583 3.5 6.938 3.5 7.375V19.708C3.5 20.145 3.855 20.5 4.292 20.5H19.708C20.145 20.5 20.5 20.145 20.5 19.708V7.375C20.5 6.938 20.145 6.583 19.708 6.583H17.258C16.941 6.633 16.626 6.488 16.476 6.201C15.596 4.536 13.882 3.501 12 3.501C10.117 3.501 8.402 4.536 7.524 6.203C7.364 6.505 7.022 6.663 6.691 6.583H4.293H4.292Z" fill="currentColor"/>
<path d="M11.9999 8.16699C9.31989 8.16699 7.13989 10.347 7.13989 13.027C7.13989 15.707 9.31989 17.887 11.9999 17.887C14.6799 17.887 16.8599 15.707 16.8599 13.027C16.8599 10.347 14.6799 8.16699 11.9999 8.16699ZM13.9999 13.75H12.7499V15C12.7499 15.414 12.4139 15.75 11.9999 15.75C11.5859 15.75 11.2499 15.414 11.2499 15V13.75H9.99989C9.58589 13.75 9.24989 13.414 9.24989 13C9.24989 12.586 9.58589 12.25 9.99989 12.25H11.2499V11C11.2499 10.586 11.5859 10.25 11.9999 10.25C12.4139 10.25 12.7499 10.586 12.7499 11V12.25H13.9999C14.4139 12.25 14.7499 12.586 14.7499 13C14.7499 13.414 14.4139 13.75 13.9999 13.75Z" fill="currentColor"/>
</svg>
