<svg width="15" height="15" viewBox="0 0 15 15" fill="none" xmlns="http://www.w3.org/2000/svg">
<path d="M9.414 8.00012L15.207 2.20712C15.597 1.81712 15.597 1.18412 15.207 0.793119C14.817 0.402119 14.184 0.403119 13.793 0.793119L8 6.58612L2.207 0.793119C1.817 0.403119 1.184 0.403119 0.792997 0.793119C0.401997 1.18312 0.402997 1.81612 0.792997 2.20712L6.586 8.00012L0.792997 13.7931C0.402997 14.1831 0.402997 14.8161 0.792997 15.2071C0.987997 15.4021 1.243 15.5001 1.5 15.5001C1.757 15.5001 2.012 15.4021 2.207 15.2071L8 9.41412L13.793 15.2071C13.988 15.4021 14.243 15.5001 14.5 15.5001C14.757 15.5001 15.012 15.4021 15.207 15.2071C15.597 14.8171 15.597 14.1841 15.207 13.7931L9.414 8.00012Z" fill="#657786"/>
</svg>
