<svg width="24" height="24" viewBox="0 0 24 24" fill="none" xmlns="http://www.w3.org/2000/svg">
<path d="M22.58 7.34986L12.475 1.89686C12.178 1.73686 11.821 1.73686 11.525 1.89686L1.42502 7.34986C0.939018 7.61386 0.758018 8.21986 1.02002 8.70586C1.20002 9.04086 1.54502 9.23086 1.90002 9.23086C2.06002 9.23086 2.22402 9.19286 2.37502 9.11086L3.10902 8.71486L4.69902 19.9649C4.91502 21.1789 6.00902 22.0269 7.35902 22.0269H16.641C17.991 22.0269 19.085 21.1789 19.303 19.9389L20.891 8.71386L21.628 9.11186C22.113 9.37486 22.72 9.19386 22.982 8.70786C23.245 8.22186 23.062 7.61486 22.578 7.35286L22.58 7.34986ZM12 15.4349C10.205 15.4349 8.75002 13.9799 8.75002 12.1849C8.75002 10.3899 10.205 8.93486 12 8.93486C13.795 8.93486 15.25 10.3899 15.25 12.1849C15.25 13.9799 13.795 15.4349 12 15.4349Z" fill="currentColor"/>
</svg>
