<svg width="24" height="22" viewBox="0 0 24 22" fill="none" xmlns="http://www.w3.org/2000/svg">
<path d="M22.58 6.3501L12.475 0.8971C12.178 0.7371 11.821 0.7371 11.525 0.8971L1.42502 6.3501C0.939018 6.6141 0.758018 7.2201 1.02002 7.7061C1.20002 8.0411 1.54502 8.2311 1.90002 8.2311C2.06002 8.2311 2.22402 8.1931 2.37502 8.1111L3.10902 7.7151L4.69902 18.9651C4.91502 20.1791 6.00902 21.0271 7.35902 21.0271H16.641C17.991 21.0271 19.085 20.1791 19.303 18.9391L20.891 7.7141L21.628 8.1121C22.113 8.3751 22.72 8.1941 22.982 7.7081C23.245 7.2221 23.062 6.6151 22.578 6.3531L22.58 6.3501ZM12 14.4351C10.205 14.4351 8.75002 12.9801 8.75002 11.1851C8.75002 9.3901 10.205 7.9351 12 7.9351C13.795 7.9351 15.25 9.3901 15.25 11.1851C15.25 12.9801 13.795 14.4351 12 14.4351Z" fill="#FF6600"/>
</svg>
