<svg width="20" height="20" viewBox="1 0 20 20" fill="none" xmlns="http://www.w3.org/2000/svg">
<path d="M10.8 19.6379H10.786C8.203 19.5899 0.75 12.8559 0.75 6.47788C0.75 3.41388 3.275 0.723877 6.153 0.723877C8.443 0.723877 9.983 2.30388 10.799 3.45388C11.613 2.30588 13.153 0.723877 15.444 0.723877C18.324 0.723877 20.848 3.41388 20.848 6.47888C20.848 12.8549 13.394 19.5889 10.811 19.6359H10.8V19.6379ZM6.154 2.22488C4.074 2.22488 2.251 4.21288 2.251 6.47988C2.251 12.2199 9.285 18.0759 10.801 18.1379C12.319 18.0759 19.351 12.2209 19.351 6.47988C19.351 4.21288 17.528 2.22488 15.448 2.22488C12.92 2.22488 11.508 5.16088 11.496 5.18988C11.266 5.75188 10.34 5.75188 10.109 5.18988C10.095 5.15988 8.684 2.22488 6.155 2.22488H6.154Z" fill="#657786"/>
</svg>
