<svg width="30" height="30" viewBox="0 0 30 30" fill="none" xmlns="http://www.w3.org/2000/svg">
<path fill-rule="evenodd" clip-rule="evenodd" d="M19.2746 13.8535C19.2746 13.8535 13.6745 22.9339 9.08312 22.9339C1.05226 22.9339 8.53645 5.63525 14.3936 5.63525C18.4807 5.63525 19.2746 13.8535 19.2746 13.8535Z" fill="#FF6600"/>
<path fill-rule="evenodd" clip-rule="evenodd" d="M25.9293 25.2728C24.3339 26.9704 22.3649 28.2731 20.1784 29.0774C17.9918 29.8818 15.648 30.1658 13.3326 29.9069C11.0172 29.648 8.79393 28.8533 6.83917 27.5859C4.8844 26.3184 3.25186 24.613 2.07098 22.6049C3.39861 24.4106 5.65038 25.6144 8.85231 25.6144C16.74 25.6144 21.2175 19.4849 21.2175 19.4849C21.2175 19.4849 21.6047 24.3293 25.9195 25.2728H25.9293Z" fill="#FF6600"/>
<path fill-rule="evenodd" clip-rule="evenodd" d="M28.2917 8.05908C29.4723 10.3147 30.0586 12.8339 29.9954 15.379C29.9322 17.924 29.2215 20.411 27.9305 22.6053C26.9094 22.0326 26.1544 21.0814 25.8284 19.957L24.1168 14.8295L28.2917 8.05908Z" fill="#FF6600"/>
<path fill-rule="evenodd" clip-rule="evenodd" d="M15.0024 0.0130266C18.7639 0.0105251 22.3885 1.42411 25.1548 3.97249L22.3141 8.55661C21.2858 5.88226 19.1968 3.20468 15.1325 3.20468C6.80881 3.20468 0.63923 12.2916 0.63923 17.9884C0.637396 18.7252 0.731462 19.459 0.919069 20.1715C0.0866864 17.9044 -0.185961 15.4699 0.124289 13.0749C0.434539 10.6798 1.31852 8.39507 2.7011 6.41479C4.08368 4.43452 5.92399 2.81726 8.06563 1.70044C10.2073 0.583634 12.5869 0.00029138 15.0024 0V0.0130266Z" fill="#FF6600"/>
</svg>
