<svg width="35" height="35" viewBox="0 0 35 35" fill="none" xmlns="http://www.w3.org/2000/svg">
<path d="M27.3351 9.85253H25.2132V7.72803C25.2132 7.36578 24.9192 7.07178 24.557 7.07178C24.1947 7.07178 23.9007 7.36578 23.9007 7.72803V9.85253H21.7788C21.4166 9.85253 21.1226 10.1457 21.1226 10.5088C21.1226 10.8719 21.4166 11.165 21.7788 11.165H23.9016V13.286C23.9016 13.6483 24.1956 13.9423 24.5578 13.9423C24.9201 13.9423 25.2141 13.6483 25.2141 13.286V11.165H27.336C27.6991 11.165 27.9922 10.8702 27.9922 10.5088C27.9922 10.1474 27.6982 9.85253 27.336 9.85253H27.3351ZM21.8838 16.5078C21.9013 14.378 21.1996 12.4854 19.9081 11.179C18.7496 10.0048 17.1816 9.35553 15.4928 9.34765H15.4815C13.7927 9.3564 12.2247 10.0039 11.0662 11.1782C9.77559 12.4863 9.07384 14.3789 9.09134 16.5087C9.12284 20.125 7.40872 21.49 7.34134 21.5425C7.11384 21.7114 7.02022 22.0063 7.10859 22.2758C7.19784 22.5453 7.44984 22.7264 7.73159 22.7264H11.8581C11.9543 24.6742 13.5556 26.2325 15.5278 26.2325C17.5001 26.2325 19.1005 24.675 19.1976 22.7264H23.2445C23.5245 22.7264 23.773 22.5462 23.8631 22.2802C23.9532 22.0141 23.8631 21.7175 23.64 21.5469C23.5682 21.4909 21.8523 20.125 21.883 16.5069L21.8838 16.5078ZM15.527 24.92C14.2792 24.92 13.2642 23.9488 13.1697 22.7255H17.8842C17.7897 23.9505 16.7747 24.9192 15.527 24.9192V24.92ZM9.14822 21.4139C9.76247 20.4558 10.4231 18.8729 10.403 16.4982C10.3881 14.6939 10.9402 13.1732 11.9998 12.1013C12.9125 11.1773 14.1506 10.6663 15.4876 10.661C16.8237 10.6672 18.0627 11.1773 18.9745 12.1013C20.0332 13.174 20.5845 14.6939 20.5696 16.4982C20.5503 18.8729 21.2101 20.4558 21.827 21.4139H9.14822Z" fill="currentColor"/>
</svg>
