<svg width="35" height="35" viewBox="0 0 35 35" fill="none" xmlns="http://www.w3.org/2000/svg">
<circle cx="17.5" cy="17.5" r="17" fill="#FF6600" stroke="#FF6600"/>
<path d="M27.6584 7.1313C27.3302 6.9703 26.9391 7.10505 26.7781 7.4288L24.2721 12.4828L22.782 10.899C22.5344 10.6339 22.1187 10.6225 21.8545 10.871C21.5902 11.1195 21.578 11.536 21.8265 11.7985L23.9641 14.07C24.0892 14.2013 24.2616 14.2757 24.4419 14.2757C24.4734 14.2757 24.5057 14.273 24.5381 14.2687C24.7507 14.2372 24.9336 14.1024 25.0299 13.9099L27.9541 8.01242C28.1151 7.68692 27.9821 7.29317 27.6566 7.13217L27.6584 7.1313ZM23.6404 21.5469C23.5677 21.4909 21.8519 20.125 21.8816 16.5069C21.9009 14.378 21.1991 12.4854 19.9076 11.1782C18.7491 10.0057 17.1811 9.35555 15.4924 9.34767H15.481C13.7922 9.35642 12.2242 10.0039 11.0657 11.1782C9.7751 12.4863 9.07335 14.3789 9.09085 16.5087C9.12235 20.125 7.40823 21.49 7.34085 21.5425C7.11335 21.7114 7.01973 22.0063 7.1081 22.2758C7.19735 22.5453 7.44935 22.7264 7.7311 22.7264H11.3011C11.3781 24.9752 13.22 26.7864 15.488 26.7864C17.756 26.7864 19.5987 24.9752 19.6749 22.7264H23.2466C23.5266 22.7264 23.7751 22.5462 23.8652 22.2802C23.9554 22.0142 23.8635 21.7175 23.6412 21.5469H23.6404ZM15.4871 24.9489C14.2324 24.9489 13.2121 23.9628 13.1386 22.7264H17.8356C17.7612 23.9628 16.7419 24.9489 15.4871 24.9489Z" fill="white"/>
</svg>
