<svg width="15" height="15" viewBox="0 0 15 15" fill="none" xmlns="http://www.w3.org/2000/svg">
<path d="M8.77881 1.40127L6.18631 1.39502H6.18506C3.45131 1.39502 1.31006 3.53689 1.31006 6.27127C1.31006 8.83252 3.30131 10.775 5.97568 10.8775V13.27C5.97568 13.3375 6.00318 13.4488 6.05068 13.5219C6.13943 13.6625 6.29068 13.7388 6.44568 13.7388C6.53193 13.7388 6.61881 13.715 6.69693 13.665C6.86193 13.56 10.7426 11.0775 11.7519 10.2238C12.9407 9.21752 13.6519 7.74252 13.6538 6.27877V6.26814C13.6501 3.53877 11.5101 1.40127 8.77881 1.40064V1.40127ZM11.1457 9.50877C10.4369 10.1088 8.10693 11.6369 6.91318 12.4106V10.4188C6.91318 10.16 6.70381 9.95002 6.44443 9.95002H6.19693C3.90943 9.95002 2.24818 8.40252 2.24818 6.27127C2.24818 4.06252 3.97818 2.33252 6.18568 2.33252L8.77756 2.33877H8.77881C10.9863 2.33877 12.7163 4.06752 12.7176 6.27377C12.7157 7.46752 12.1288 8.67627 11.1463 9.50877H11.1457Z" fill="currentColor"/>
</svg>
