<svg width="21" height="20" viewBox="0 0 21 20" fill="none" xmlns="http://www.w3.org/2000/svg">
<path d="M12.8461 0.241934L8.69812 0.231934H8.69612C4.32212 0.231934 0.896118 3.65893 0.896118 8.03393C0.896118 12.1319 4.08212 15.2399 8.36112 15.4039V19.2319C8.36112 19.3399 8.40512 19.5179 8.48112 19.6349C8.62312 19.8599 8.86512 19.9819 9.11312 19.9819C9.25112 19.9819 9.39012 19.9439 9.51512 19.8639C9.77912 19.6959 15.9881 15.7239 17.6031 14.3579C19.5051 12.7479 20.6431 10.3879 20.6461 8.04593V8.02893C20.6401 3.66193 17.2161 0.241933 12.8461 0.240933V0.241934ZM16.6331 13.2139C15.4991 14.1739 11.7711 16.6189 9.86112 17.8569V14.6699C9.86112 14.2559 9.52612 13.9199 9.11112 13.9199H8.71512C5.05512 13.9199 2.39712 11.4439 2.39712 8.03393C2.39712 4.49993 5.16512 1.73193 8.69712 1.73193L12.8441 1.74193H12.8461C16.3781 1.74193 19.1461 4.50793 19.1481 8.03793C19.1451 9.94793 18.2061 11.8819 16.6341 13.2139H16.6331Z" fill="#657786"/>
</svg>
