<svg viewBox="0 -3 18 24" fill="currentColor" xmlns="http://www.w3.org/2000/svg">
<path d="M9.00003 10.816C10.355 10.816 11.872 10.666 12.84 9.56001C13.654 8.63001 13.918 7.19201 13.646 5.16801C13.266 2.34301 11.529 0.656006 9.00003 0.656006C6.47103 0.656006 4.73403 2.34301 4.35403 5.17001C4.08203 7.19201 4.34603 8.63001 5.16003 9.56001C6.12803 10.667 7.64503 10.816 9.00003 10.816ZM5.84003 5.36801C6.00203 4.16801 6.62703 2.15601 9.00003 2.15601C11.373 2.15601 11.998 4.16901 12.16 5.36801C12.367 6.91801 12.217 7.99501 11.71 8.57301C11.255 9.09301 10.444 9.31601 9.00003 9.31601C7.55603 9.31601 6.74503 9.09301 6.29003 8.57301C5.78303 7.99501 5.63303 6.91701 5.84003 5.36801ZM17.28 18.236C16.403 14.71 12.998 12.246 9.00003 12.246C5.00203 12.246 1.59703 14.71 0.720027 18.236C0.548027 18.928 0.692027 19.636 1.11503 20.176C1.52303 20.696 2.15503 20.996 2.84803 20.996H15.152C15.845 20.996 16.477 20.696 16.885 20.176C17.309 19.636 17.452 18.929 17.279 18.236H17.28ZM15.704 19.252C15.578 19.412 15.388 19.498 15.152 19.498H2.84803C2.61303 19.498 2.42203 19.413 2.29603 19.252C2.15903 19.078 2.11603 18.84 2.17603 18.598C2.88603 15.743 5.69303 13.748 9.00003 13.748C12.307 13.748 15.114 15.742 15.824 18.598C15.884 18.84 15.841 19.078 15.704 19.252Z" fill="currentColor"/>
</svg>
