<svg width="24" height="24" viewBox="0 0 24 24" fill="none" xmlns="http://www.w3.org/2000/svg">
<path d="M12 11.8158C13.355 11.8158 14.872 11.6658 15.84 10.5598C16.654 9.62976 16.918 8.19176 16.646 6.16776C16.266 3.34276 14.529 1.65576 12 1.65576C9.47103 1.65576 7.73403 3.34276 7.35403 6.16976C7.08203 8.19176 7.34603 9.62976 8.16003 10.5598C9.12803 11.6668 10.645 11.8158 12 11.8158ZM8.84003 6.36776C9.00203 5.16776 9.62703 3.15576 12 3.15576C14.373 3.15576 14.998 5.16876 15.16 6.36776C15.367 7.91776 15.217 8.99476 14.71 9.57276C14.255 10.0928 13.444 10.3158 12 10.3158C10.556 10.3158 9.74503 10.0928 9.29003 9.57276C8.78303 8.99476 8.63303 7.91676 8.84003 6.36776ZM20.28 19.2358C19.403 15.7098 15.998 13.2458 12 13.2458C8.00203 13.2458 4.59703 15.7098 3.72003 19.2358C3.54803 19.9278 3.69203 20.6358 4.11503 21.1758C4.52303 21.6958 5.15503 21.9958 5.84803 21.9958H18.152C18.845 21.9958 19.477 21.6958 19.885 21.1758C20.309 20.6358 20.452 19.9288 20.279 19.2358H20.28ZM18.704 20.2518C18.578 20.4118 18.388 20.4978 18.152 20.4978H5.84803C5.61303 20.4978 5.42203 20.4128 5.29603 20.2518C5.15903 20.0778 5.11603 19.8398 5.17603 19.5978C5.88603 16.7428 8.69303 14.7478 12 14.7478C15.307 14.7478 18.114 16.7418 18.824 19.5978C18.884 19.8398 18.841 20.0778 18.704 20.2518Z" fill="currentColor"/>
</svg>
